<?xml version="1.0" encoding="utf-8"?>
<!-- Generator: Adobe Illustrator 27.2.0, SVG Export Plug-In . SVG Version: 6.00 Build 0)  -->
<svg version="1.1" id="Layer_1" xmlns="http://www.w3.org/2000/svg" xmlns:xlink="http://www.w3.org/1999/xlink" x="0px" y="0px"
	 viewBox="0 0 286.9 287.8" style="enable-background:new 0 0 286.9 287.8;" xml:space="preserve">
<g>
	<path d="M128.6,1.6c-1.4,0.2-2.6,0.6-3.6,1.2c-1,0.6-1.8,1.4-2.4,2.3c-0.6,0.9-1,1.9-1.2,2.9c-0.2,1.1-0.3,2.1-0.1,3.1
		c0.1,1.1,0.5,2.2,1.1,3.2c0.6,1,1.3,1.9,2.2,2.7c0.9,0.7,1.9,1.3,3,1.7c1.1,0.4,2.2,0.5,3.5,0.4c0.3,0,0.7-0.1,1.2-0.3
		c0.5-0.1,0.9-0.3,1.3-0.6c0.4-0.3,0.8-0.6,1.2-1.1c0.3-0.4,0.6-1,0.7-1.7l0.3,0l0.4,3.2c-0.3,0-0.6,0.1-0.9,0.2
		c-0.3,0.1-0.6,0.2-1,0.4c-0.5,0.2-1,0.4-1.6,0.6s-1.2,0.3-1.9,0.4c-1.7,0.2-3.2,0.1-4.5-0.3s-2.5-1.1-3.4-1.9s-1.7-1.8-2.3-2.9
		c-0.6-1.1-0.9-2.3-1-3.5c-0.1-1.2-0.1-2.4,0.2-3.6s0.8-2.3,1.5-3.4c0.8-1,1.7-1.9,3-2.6c1.2-0.7,2.7-1.2,4.5-1.4
		c0.6-0.1,1.2-0.1,1.7,0c0.5,0.1,1,0.1,1.4,0.2c0.3,0.1,0.6,0.1,0.8,0.1c0.2,0,0.5,0,0.7,0l0.4,3.2l-0.3,0c-0.2-0.6-0.5-1.1-0.8-1.4
		c-0.4-0.4-0.7-0.6-1.2-0.8c-0.4-0.2-0.9-0.3-1.4-0.3C129.5,1.5,129,1.5,128.6,1.6z"/>
	<path d="M150.8,0c1.5,0.1,2.8,0.4,4,1c1.2,0.6,2.2,1.4,2.9,2.3s1.4,2,1.8,3.2c0.4,1.2,0.6,2.5,0.5,3.8c-0.1,1.4-0.4,2.8-1,4
		c-0.6,1.2-1.4,2.2-2.4,3c-1,0.8-2.1,1.4-3.3,1.9s-2.6,0.6-4,0.5c-1.5-0.1-2.8-0.4-4-1c-1.2-0.6-2.1-1.4-2.9-2.3
		c-0.8-0.9-1.4-2-1.7-3.2c-0.4-1.2-0.5-2.4-0.5-3.7c0.1-1.2,0.4-2.4,0.9-3.6c0.5-1.2,1.2-2.2,2.1-3.1c0.9-0.9,2-1.6,3.3-2.1
		C147.8,0.1,149.2-0.1,150.8,0z M149.8,18.7c1.3,0,2.5-0.2,3.5-0.7c1-0.5,1.9-1.1,2.6-1.9c0.7-0.8,1.2-1.7,1.6-2.6s0.6-1.9,0.6-2.9
		c0.1-1.1-0.1-2.1-0.4-3.2s-0.8-2.1-1.5-3c-0.7-0.9-1.5-1.7-2.5-2.3c-1-0.6-2.1-0.9-3.3-1c-1.2-0.1-2.3,0.1-3.3,0.6
		c-1,0.5-1.8,1.1-2.5,1.9c-0.7,0.8-1.3,1.7-1.7,2.7c-0.4,1-0.6,2-0.7,3c-0.1,1.1,0.1,2.1,0.4,3.2c0.4,1.1,0.9,2.1,1.5,3
		c0.7,0.9,1.5,1.7,2.4,2.2C147.5,18.3,148.6,18.6,149.8,18.7z"/>
	<path d="M167.6,21.3l0.1,0l-0.1,0.3l-3.1-0.7l0.1-0.3l0.1,0c0.1,0,0.3,0,0.4-0.1c0.1-0.1,0.3-0.2,0.4-0.3c0.1-0.1,0.2-0.3,0.3-0.4
		c0.1-0.2,0.2-0.3,0.2-0.5l3.6-15c0-0.1,0.1-0.3,0.1-0.5c0-0.2,0-0.3,0-0.5s-0.1-0.3-0.2-0.5c-0.1-0.1-0.3-0.2-0.4-0.3l-0.1,0
		l0.1-0.3l2.8,0.7l6.4,18.6l3.4-14.4c0-0.1,0-0.3,0-0.5c0-0.2,0-0.4-0.1-0.5c0-0.2-0.1-0.3-0.2-0.5c-0.1-0.1-0.2-0.2-0.4-0.2l-0.1,0
		l0.1-0.3l3.2,0.8L184,6.1l-0.1,0c-0.2,0-0.3,0-0.4,0.1c-0.1,0.1-0.3,0.2-0.4,0.3c-0.1,0.1-0.2,0.3-0.3,0.4s-0.1,0.3-0.2,0.4
		l-4,16.9l-1.7-0.4l-6.3-18.6L167,19.5c0,0.2-0.1,0.3-0.1,0.5c0,0.2,0,0.4,0.1,0.5c0,0.2,0.1,0.3,0.2,0.5S167.5,21.2,167.6,21.3z"/>
	<path d="M191.7,28.8l0.1,0.1l-0.1,0.3l-3.8-1.6l0.1-0.3l0.1,0.1c0.1,0.1,0.3,0.1,0.4,0s0.3-0.2,0.4-0.3s0.3-0.2,0.4-0.4
		c0.1-0.2,0.2-0.3,0.2-0.4l6.1-15l-3.1-1.3c-0.3-0.1-0.6-0.2-0.8-0.1c-0.3,0-0.5,0.1-0.7,0.3c-0.2,0.1-0.4,0.3-0.6,0.5
		c-0.2,0.2-0.3,0.4-0.4,0.6l-0.3-0.1l1.2-2.9l12.1,4.9l-1.2,2.9l-0.3-0.1c0.1-0.2,0.1-0.4,0.2-0.7c0-0.3,0-0.5-0.1-0.7
		c-0.1-0.2-0.2-0.5-0.3-0.7c-0.2-0.2-0.4-0.4-0.7-0.5l-3.2-1.3l-6.1,15c-0.1,0.1-0.1,0.3-0.1,0.5c0,0.2,0,0.4,0,0.5s0.1,0.3,0.1,0.5
		C191.5,28.6,191.6,28.7,191.7,28.8z"/>
	<path d="M207.4,36.7l0.1,0.1c0.4,0.2,0.7,0.2,0.9-0.2c0.1-0.1,0.1-0.3,0.2-0.5l1.2-7.4l-4.4-2.5l-5.6,4.8c-0.1,0.1-0.2,0.2-0.3,0.3
		c-0.1,0.2-0.2,0.4-0.1,0.6c0,0.2,0.1,0.3,0.3,0.4l0.1,0.1l-0.1,0.3l-2.8-1.6l0.1-0.3l0.1,0.1c0.2,0.1,0.5,0.1,0.9,0s0.7-0.4,1-0.6
		l14.4-12.2l-2.9,18.5c-0.1,0.4-0.1,0.8-0.1,1.3s0.2,0.8,0.6,0.9l0.1,0.1l-0.1,0.3l-3.7-2.1L207.4,36.7z M206.1,25.5l3.9,2.2l1-6.4
		L206.1,25.5z"/>
	<path d="M234.1,33.6c-1.1-0.9-2.2-1.5-3.4-1.7c-1.1-0.3-2.2-0.3-3.3-0.1c-1.1,0.2-2,0.6-2.9,1.2c-0.9,0.6-1.7,1.3-2.3,2.1
		c-0.7,0.9-1.2,1.9-1.6,3c-0.3,1.1-0.5,2.3-0.4,3.4c0.1,1.1,0.4,2.2,0.9,3.3c0.5,1.1,1.2,2,2.2,2.7c0.3,0.2,0.6,0.4,1,0.7
		c0.4,0.2,0.9,0.4,1.4,0.5s1,0.1,1.6,0.1c0.6-0.1,1.1-0.3,1.7-0.7l0.2,0.2l-2,2.5c-0.2-0.2-0.5-0.3-0.8-0.5c-0.3-0.1-0.6-0.3-1-0.5
		c-0.5-0.2-1-0.5-1.5-0.7c-0.5-0.3-1.1-0.6-1.6-1.1c-1.3-1-2.3-2.2-2.9-3.4c-0.6-1.2-1-2.5-1.1-3.8c-0.1-1.3,0.1-2.5,0.5-3.6
		s1-2.2,1.7-3.2c0.7-0.9,1.7-1.7,2.7-2.4c1.1-0.7,2.2-1.1,3.5-1.3c1.3-0.2,2.6-0.1,4,0.3s2.8,1.1,4.2,2.2c0.5,0.4,0.9,0.8,1.2,1.2
		c0.3,0.4,0.6,0.8,0.9,1.1c0.2,0.3,0.3,0.5,0.5,0.7s0.3,0.4,0.5,0.5l-2,2.5l-0.2-0.2c0.3-0.5,0.4-1.1,0.4-1.6c0-0.5-0.1-1-0.3-1.4
		c-0.2-0.4-0.4-0.8-0.8-1.2C234.8,34.2,234.4,33.8,234.1,33.6z"/>
	<path d="M234.9,59.2l0.1,0.1l-0.2,0.2l-2.8-3l0.2-0.2l0.1,0.1c0.1,0.1,0.2,0.2,0.4,0.2c0.2,0,0.3,0,0.5-0.1s0.3-0.1,0.5-0.2
		c0.2-0.1,0.3-0.2,0.4-0.3l11.7-11.1l-2.3-2.4c-0.2-0.2-0.4-0.4-0.7-0.4c-0.3-0.1-0.5-0.1-0.8-0.1c-0.3,0-0.5,0.1-0.7,0.2
		c-0.2,0.1-0.4,0.2-0.6,0.4l-0.2-0.2l2.3-2.2l9,9.4l-2.3,2.2l-0.2-0.2c0.2-0.2,0.3-0.4,0.4-0.6c0.1-0.2,0.2-0.5,0.2-0.7
		c0-0.3,0-0.5,0-0.8c-0.1-0.3-0.2-0.5-0.4-0.7l-2.4-2.5l-11.7,11.1c-0.1,0.1-0.2,0.2-0.3,0.4c-0.1,0.2-0.2,0.3-0.2,0.5
		c-0.1,0.2-0.1,0.3-0.1,0.5C234.7,58.9,234.7,59,234.9,59.2z"/>
	<path d="M273.4,85.1c-0.6-1.3-1.4-2.3-2.3-3c-0.9-0.7-1.9-1.2-2.9-1.5c-1-0.3-2.1-0.4-3.2-0.2c-1.1,0.1-2.1,0.4-3,0.8
		c-1,0.5-1.9,1.2-2.7,2s-1.4,1.8-1.8,2.9c-0.4,1.1-0.6,2.2-0.7,3.3c0,1.2,0.2,2.3,0.8,3.4c0.1,0.3,0.4,0.7,0.6,1.1
		c0.3,0.4,0.6,0.8,1,1.1c0.4,0.3,0.9,0.6,1.4,0.8c0.5,0.2,1.1,0.2,1.8,0.1l0.1,0.3l-2.9,1.4c-0.1-0.3-0.3-0.5-0.5-0.8
		s-0.4-0.5-0.7-0.8c-0.3-0.4-0.7-0.8-1.1-1.3c-0.4-0.5-0.7-1.1-1-1.7c-0.7-1.5-1.1-3-1.1-4.4s0.2-2.7,0.7-3.8c0.5-1.2,1.2-2.2,2-3.1
		s1.9-1.6,2.9-2.1c1.1-0.5,2.2-0.8,3.5-1c1.2-0.1,2.5,0,3.7,0.4c1.2,0.4,2.4,1,3.5,2s2,2.2,2.8,3.8c0.3,0.6,0.5,1.1,0.6,1.6
		c0.1,0.5,0.2,1,0.3,1.4c0,0.3,0.1,0.6,0.1,0.8s0.1,0.5,0.2,0.7l-2.9,1.4l-0.1-0.3c0.5-0.4,0.9-0.8,1.1-1.2c0.2-0.4,0.3-0.9,0.4-1.4
		c0-0.5,0-0.9-0.2-1.4C273.8,85.9,273.6,85.5,273.4,85.1z"/>
	<path d="M281.9,105.6c0.4,1.5,0.5,2.8,0.3,4.1s-0.6,2.5-1.3,3.5c-0.6,1-1.5,2-2.5,2.7s-2.2,1.3-3.4,1.6c-1.4,0.4-2.8,0.5-4.1,0.3
		s-2.5-0.6-3.6-1.3c-1.1-0.7-2-1.5-2.8-2.6s-1.4-2.3-1.8-3.6c-0.4-1.4-0.5-2.8-0.3-4.1c0.2-1.3,0.6-2.4,1.3-3.5s1.5-1.9,2.5-2.6
		c1-0.7,2.1-1.3,3.3-1.6c1.2-0.3,2.4-0.4,3.7-0.3s2.5,0.5,3.6,1s2.2,1.4,3,2.4C280.9,102.8,281.5,104.1,281.9,105.6z M263.9,110.6
		c0.4,1.2,1,2.3,1.8,3.1s1.6,1.4,2.6,1.8c1,0.4,2,0.6,3,0.7c1,0,2-0.1,3-0.3c1-0.3,2-0.8,3-1.4c0.9-0.7,1.7-1.5,2.4-2.4
		c0.7-0.9,1.1-1.9,1.4-3c0.3-1.1,0.2-2.3-0.1-3.5c-0.3-1.2-0.9-2.1-1.6-2.9c-0.8-0.8-1.6-1.4-2.6-1.8c-1-0.4-2-0.7-3.1-0.7
		c-1.1-0.1-2.1,0-3,0.3c-1,0.3-2,0.8-2.9,1.4c-0.9,0.7-1.7,1.5-2.4,2.4c-0.6,0.9-1.1,1.9-1.4,3C263.6,108.4,263.6,109.5,263.9,110.6
		z"/>
	<path d="M267.1,128.4l0,0.1l-0.3,0l-0.3-3.2l0.3,0l0,0.1c0,0.1,0.1,0.3,0.2,0.4c0.1,0.1,0.3,0.2,0.4,0.3c0.2,0.1,0.3,0.1,0.5,0.1
		c0.2,0,0.4,0,0.5,0l15.4-1.3c0.1,0,0.3,0,0.5-0.1c0.2,0,0.3-0.1,0.5-0.2c0.1-0.1,0.3-0.2,0.4-0.4c0.1-0.1,0.1-0.3,0.1-0.5l0-0.1
		l0.3,0l0.2,2.9l-15.6,11.9l14.7-1.3c0.1,0,0.3,0,0.5-0.1c0.2-0.1,0.3-0.1,0.5-0.2c0.1-0.1,0.3-0.2,0.4-0.3c0.1-0.1,0.1-0.3,0.1-0.4
		l0-0.1l0.3,0l0.3,3.2l-0.3,0l0-0.1c0-0.2-0.1-0.3-0.2-0.4c-0.1-0.1-0.3-0.2-0.4-0.3c-0.2-0.1-0.3-0.1-0.5-0.1s-0.3,0-0.5,0
		l-17.3,1.5l-0.2-1.8l15.7-11.9l-14.7,1.3c-0.2,0-0.3,0-0.5,0.1c-0.2,0.1-0.3,0.1-0.5,0.2c-0.1,0.1-0.3,0.2-0.4,0.3
		C267.1,128.1,267.1,128.2,267.1,128.4z"/>
	<path d="M267.6,153.6l0,0.1l-0.3,0l0.3-4.1l0.3,0l0,0.1c0,0.2,0,0.3,0.1,0.4c0.1,0.1,0.2,0.2,0.4,0.3c0.1,0.1,0.3,0.2,0.5,0.2
		c0.2,0,0.3,0.1,0.5,0.1l16.2,1l0.2-3.4c0-0.3,0-0.6-0.2-0.8c-0.1-0.2-0.3-0.4-0.5-0.6c-0.2-0.2-0.4-0.3-0.6-0.4s-0.5-0.1-0.7-0.2
		l0-0.3l3.2,0.2l-0.8,13l-3.2-0.2l0-0.3c0.2,0,0.5,0,0.7-0.1c0.2-0.1,0.5-0.2,0.7-0.3c0.2-0.1,0.4-0.3,0.5-0.5
		c0.1-0.2,0.2-0.5,0.3-0.8l0.2-3.4l-16.2-1c-0.2,0-0.3,0-0.5,0c-0.2,0-0.4,0.1-0.5,0.2c-0.2,0.1-0.3,0.2-0.4,0.3
		C267.6,153.3,267.6,153.5,267.6,153.6z"/>
	<path d="M265,171l0,0.1c-0.1,0.5,0.1,0.7,0.5,0.8c0.2,0,0.3,0,0.5,0l7.4-1.3l0.9-5l-6.3-3.8c-0.1-0.1-0.3-0.1-0.4-0.2
		c-0.2,0-0.5,0-0.6,0.1c-0.2,0.1-0.3,0.2-0.3,0.4l0,0.1l-0.3-0.1l0.6-3.2l0.3,0.1l0,0.1c0,0.2,0.1,0.5,0.3,0.8
		c0.2,0.3,0.6,0.6,0.9,0.8l16.1,9.8l-18.4,3.1c-0.4,0.1-0.8,0.2-1.2,0.3c-0.4,0.2-0.6,0.4-0.7,0.8l0,0.1l-0.3-0.1l0.8-4.2L265,171z
		 M275.3,166.1l-0.8,4.4l6.4-1.1L275.3,166.1z"/>
	<path d="M276.5,195.3c0.5-1.3,0.7-2.6,0.6-3.8c-0.1-1.2-0.4-2.2-1-3.2c-0.5-0.9-1.2-1.7-2.1-2.4s-1.7-1.2-2.7-1.5
		c-1.1-0.4-2.2-0.6-3.4-0.5s-2.3,0.3-3.4,0.7c-1.1,0.4-2,1.1-2.8,1.9c-0.8,0.8-1.5,1.8-1.9,2.9c-0.1,0.3-0.2,0.7-0.3,1.2
		c-0.1,0.5-0.1,1-0.1,1.5c0,0.5,0.2,1,0.4,1.5c0.2,0.5,0.6,1,1.2,1.4l-0.1,0.3l-3-1.1c0.1-0.3,0.2-0.6,0.2-0.9s0.1-0.7,0.1-1.1
		c0-0.5,0.1-1.1,0.2-1.7s0.3-1.2,0.5-1.9c0.6-1.6,1.4-2.9,2.3-3.9c1-1,2.1-1.7,3.2-2.2c1.2-0.5,2.4-0.7,3.6-0.7
		c1.2,0,2.4,0.2,3.6,0.6s2.2,1,3.1,1.8c1,0.8,1.7,1.8,2.3,2.9s0.9,2.4,1,3.9c0.1,1.4-0.2,3-0.8,4.7c-0.2,0.6-0.5,1.1-0.8,1.6
		c-0.3,0.4-0.6,0.8-0.8,1.2c-0.2,0.2-0.4,0.5-0.5,0.7c-0.1,0.2-0.2,0.4-0.3,0.6l-3-1.1l0.1-0.3c0.6,0.1,1.1,0.1,1.6-0.1
		c0.5-0.2,0.9-0.4,1.2-0.7s0.6-0.7,0.9-1.1C276.2,196.2,276.3,195.7,276.5,195.3z"/>
	<path d="M252.5,204.1l-0.1,0.1l-0.3-0.1l1.9-3.6l0.3,0.1l-0.1,0.1c-0.1,0.1-0.1,0.3,0,0.4c0,0.2,0.1,0.3,0.2,0.5s0.2,0.3,0.4,0.4
		c0.1,0.1,0.3,0.2,0.4,0.3l14.3,7.6l1.6-3c0.1-0.3,0.2-0.5,0.2-0.8c0-0.3-0.1-0.5-0.2-0.8c-0.1-0.2-0.2-0.4-0.4-0.6
		c-0.2-0.2-0.4-0.3-0.6-0.4l0.1-0.3l2.8,1.5l-6.1,11.5l-2.8-1.5l0.1-0.3c0.2,0.1,0.4,0.2,0.7,0.2c0.2,0,0.5,0,0.8,0
		c0.3,0,0.5-0.1,0.7-0.3c0.2-0.1,0.4-0.3,0.6-0.6l1.6-3l-14.3-7.6c-0.1-0.1-0.3-0.1-0.5-0.2c-0.2-0.1-0.4-0.1-0.5-0.1
		c-0.2,0-0.3,0-0.5,0.1S252.5,204,252.5,204.1z"/>
	<path d="M240,248.9c1-1,1.8-2,2.2-3.1c0.4-1.1,0.6-2.2,0.5-3.3c-0.1-1.1-0.3-2.1-0.8-3.1c-0.5-1-1-1.8-1.7-2.6
		c-0.8-0.8-1.7-1.5-2.8-2c-1.1-0.5-2.2-0.8-3.3-0.8c-1.1-0.1-2.3,0.1-3.4,0.4s-2.1,0.9-3,1.8c-0.3,0.2-0.5,0.6-0.8,0.9
		s-0.5,0.8-0.7,1.3c-0.2,0.5-0.3,1-0.3,1.6s0.1,1.2,0.4,1.8l-0.2,0.2l-2.2-2.3c0.2-0.2,0.4-0.4,0.6-0.7c0.2-0.3,0.4-0.6,0.6-0.9
		c0.3-0.4,0.6-0.9,0.9-1.4c0.4-0.5,0.8-1,1.3-1.5c1.2-1.2,2.5-2,3.8-2.4s2.6-0.7,3.9-0.6c1.3,0.1,2.4,0.4,3.5,1
		c1.1,0.6,2.1,1.3,2.9,2.1c0.8,0.9,1.5,1.9,2,3s0.8,2.4,0.8,3.6s-0.2,2.6-0.8,3.9c-0.5,1.3-1.5,2.6-2.8,3.8
		c-0.5,0.4-0.9,0.8-1.4,1.1c-0.5,0.3-0.9,0.5-1.2,0.7c-0.3,0.1-0.5,0.3-0.7,0.4c-0.2,0.1-0.4,0.3-0.6,0.4l-2.2-2.3l0.2-0.2
		c0.5,0.4,1,0.6,1.5,0.6c0.5,0.1,1,0,1.4-0.1c0.4-0.1,0.9-0.3,1.3-0.6S239.7,249.2,240,248.9z"/>
	<path d="M223.2,263.5c-1.3,0.8-2.5,1.4-3.8,1.6c-1.3,0.2-2.5,0.2-3.7-0.1s-2.3-0.8-3.4-1.5c-1-0.7-1.9-1.6-2.6-2.7
		c-0.8-1.2-1.3-2.5-1.6-3.8c-0.2-1.3-0.2-2.6,0.1-3.8c0.3-1.2,0.8-2.4,1.5-3.5c0.7-1.1,1.7-2,2.8-2.8c1.2-0.8,2.5-1.4,3.8-1.6
		c1.3-0.2,2.5-0.2,3.7,0.1c1.2,0.3,2.3,0.8,3.3,1.5c1,0.7,1.9,1.6,2.6,2.6c0.7,1,1.2,2.2,1.5,3.4s0.4,2.5,0.2,3.8
		c-0.2,1.3-0.6,2.5-1.3,3.7C225.6,261.6,224.5,262.6,223.2,263.5z M212.8,248c-1,0.8-1.8,1.7-2.3,2.6c-0.5,1-0.8,2-0.9,3.1
		c-0.1,1,0,2.1,0.3,3.1c0.3,1,0.7,1.9,1.2,2.7c0.6,0.9,1.4,1.7,2.3,2.3c0.9,0.7,1.9,1.2,3,1.5c1.1,0.3,2.2,0.4,3.3,0.3
		c1.1-0.1,2.2-0.5,3.2-1.2c1-0.7,1.7-1.5,2.2-2.5s0.8-2,0.9-3c0.1-1.1,0-2.1-0.3-3.2c-0.3-1-0.7-2-1.2-2.8c-0.6-0.9-1.4-1.7-2.3-2.3
		c-0.9-0.7-1.9-1.2-3-1.5c-1.1-0.3-2.2-0.4-3.3-0.3C214.8,247,213.8,247.3,212.8,248z"/>
	<path d="M197,256.6l-0.1,0.1l-0.1-0.3l3-1.3l0.1,0.3l-0.1,0.1c-0.1,0.1-0.2,0.2-0.3,0.3c-0.1,0.2-0.1,0.3-0.1,0.5s0,0.4,0,0.5
		c0,0.2,0.1,0.4,0.1,0.5l6.1,14.2c0.1,0.1,0.1,0.3,0.2,0.4c0.1,0.1,0.2,0.3,0.3,0.4c0.1,0.1,0.3,0.2,0.4,0.2c0.2,0,0.3,0,0.5,0
		l0.1-0.1l0.1,0.3l-2.7,1.2l-16.3-11l5.9,13.6c0.1,0.1,0.1,0.3,0.3,0.4c0.1,0.1,0.2,0.3,0.4,0.4c0.1,0.1,0.3,0.2,0.4,0.2
		c0.1,0.1,0.3,0,0.4,0l0.1-0.1l0.1,0.3l-3,1.3l-0.1-0.3l0.1-0.1c0.1-0.1,0.2-0.2,0.3-0.3c0.1-0.1,0.1-0.3,0.1-0.5c0-0.2,0-0.4,0-0.5
		c0-0.2-0.1-0.3-0.1-0.4l-6.9-15.9l1.7-0.7l16.2,11.1l-5.9-13.5c-0.1-0.1-0.1-0.3-0.3-0.4s-0.2-0.3-0.4-0.4s-0.3-0.2-0.4-0.3
		S197.1,256.6,197,256.6z"/>
	<path d="M173.2,265.1l-0.1,0l-0.1-0.3l4-1.1l0.1,0.3l-0.1,0c-0.1,0-0.3,0.1-0.3,0.3c-0.1,0.1-0.1,0.3-0.2,0.5
		c0,0.2-0.1,0.4-0.1,0.5c0,0.2,0,0.4,0.1,0.5l4.1,15.6l3.3-0.9c0.3-0.1,0.5-0.2,0.7-0.4c0.2-0.2,0.3-0.4,0.4-0.6
		c0.1-0.2,0.2-0.5,0.2-0.7c0-0.3,0-0.5-0.1-0.7l0.3-0.1l0.8,3.1l-12.6,3.3l-0.8-3.1l0.3-0.1c0.1,0.2,0.2,0.4,0.3,0.7
		c0.1,0.2,0.3,0.4,0.5,0.6c0.2,0.2,0.4,0.3,0.7,0.3s0.5,0.1,0.8,0l3.3-0.9l-4.1-15.6c0-0.1-0.1-0.3-0.2-0.5
		c-0.1-0.2-0.2-0.3-0.3-0.4c-0.1-0.1-0.3-0.2-0.4-0.3C173.5,265.1,173.4,265.1,173.2,265.1z"/>
	<path d="M155.9,268.2l-0.1,0c-0.5,0.1-0.7,0.3-0.6,0.7c0,0.2,0.1,0.3,0.2,0.5l3.5,6.6l5-0.7l1.6-7.2c0-0.2,0-0.3,0-0.4
		c0-0.2-0.1-0.4-0.3-0.6s-0.3-0.2-0.5-0.2l-0.1,0l0-0.3l3.2-0.4l0,0.3l-0.1,0c-0.2,0-0.5,0.2-0.7,0.5c-0.2,0.3-0.3,0.7-0.4,1.1
		l-4.2,18.4l-8.8-16.5c-0.2-0.4-0.4-0.7-0.7-1s-0.6-0.5-1-0.4l-0.1,0l0-0.3l4.3-0.6L155.9,268.2z M163.7,276.4l-4.4,0.6l3,5.7
		L163.7,276.4z"/>
	<path d="M136.5,286.7c1.4,0,2.7-0.2,3.7-0.7c1.1-0.5,2-1.1,2.7-1.9s1.3-1.7,1.6-2.7s0.6-2,0.6-3c0-1.1-0.2-2.3-0.6-3.4
		s-1-2.1-1.8-3c-0.8-0.9-1.7-1.6-2.7-2.1c-1-0.5-2.2-0.8-3.4-0.9c-0.3,0-0.8,0-1.2,0.1c-0.5,0.1-0.9,0.2-1.4,0.4
		c-0.5,0.2-0.9,0.5-1.3,0.9c-0.4,0.4-0.7,0.9-1,1.6l-0.3,0l0.1-3.2c0.3,0,0.6,0,0.9-0.1c0.3-0.1,0.7-0.1,1.1-0.2
		c0.5-0.1,1.1-0.2,1.7-0.3c0.6-0.1,1.3-0.1,1.9-0.1c1.7,0,3.2,0.4,4.4,1c1.3,0.6,2.3,1.4,3.1,2.4s1.4,2,1.8,3.2
		c0.4,1.2,0.6,2.4,0.5,3.6c0,1.2-0.3,2.4-0.7,3.5c-0.5,1.2-1.1,2.2-2,3.1c-0.9,0.9-2,1.6-3.3,2.2c-1.3,0.5-2.9,0.8-4.7,0.7
		c-0.6,0-1.2-0.1-1.7-0.2c-0.5-0.1-1-0.3-1.4-0.4c-0.3-0.1-0.6-0.2-0.8-0.2c-0.2-0.1-0.5-0.1-0.7-0.1l0.1-3.2l0.3,0
		c0.1,0.6,0.3,1.1,0.6,1.5c0.3,0.4,0.7,0.7,1.1,0.9c0.4,0.2,0.8,0.4,1.3,0.5C135.6,286.6,136,286.7,136.5,286.7z"/>
	<path d="M120.5,266.7l-0.1,0l0-0.3l4.1,0.7l0,0.3l-0.1,0c-0.2,0-0.3,0-0.4,0.1c-0.1,0.1-0.3,0.2-0.4,0.3s-0.2,0.3-0.3,0.5
		c-0.1,0.2-0.1,0.3-0.1,0.5l-2.7,16l3.3,0.6c0.3,0.1,0.6,0,0.8-0.1c0.3-0.1,0.5-0.2,0.7-0.4s0.3-0.4,0.5-0.6
		c0.1-0.2,0.2-0.5,0.2-0.7l0.3,0l-0.5,3.1l-12.8-2.1l0.5-3.1l0.3,0c0,0.2,0,0.5,0,0.7c0,0.3,0.1,0.5,0.2,0.7
		c0.1,0.2,0.3,0.4,0.5,0.6c0.2,0.2,0.5,0.3,0.8,0.3l3.4,0.6l2.7-16c0-0.2,0-0.3,0-0.5s0-0.4-0.1-0.5c-0.1-0.2-0.1-0.3-0.2-0.4
		C120.7,266.8,120.6,266.8,120.5,266.7z"/>
	<path d="M74,269.1c1.3,0.7,2.5,1,3.7,1.1c1.2,0,2.3-0.1,3.3-0.5c1-0.4,1.9-1,2.7-1.7c0.8-0.7,1.4-1.6,1.9-2.5c0.5-1,0.9-2.1,1-3.3
		c0.1-1.2,0-2.3-0.3-3.4c-0.3-1.1-0.8-2.1-1.5-3.1c-0.7-0.9-1.6-1.7-2.6-2.3c-0.3-0.2-0.7-0.3-1.1-0.5c-0.5-0.2-0.9-0.2-1.5-0.3
		c-0.5,0-1,0.1-1.6,0.2c-0.5,0.2-1.1,0.5-1.6,1l-0.3-0.1l1.5-2.8c0.3,0.1,0.5,0.2,0.9,0.3c0.3,0.1,0.7,0.2,1.1,0.3
		c0.5,0.1,1.1,0.3,1.6,0.4c0.6,0.2,1.2,0.4,1.8,0.7c1.5,0.8,2.7,1.7,3.5,2.8c0.9,1.1,1.4,2.3,1.8,3.5c0.3,1.2,0.4,2.4,0.2,3.7
		c-0.2,1.2-0.5,2.4-1.1,3.4s-1.3,2-2.2,2.9c-0.9,0.8-2,1.5-3.2,1.9c-1.2,0.4-2.5,0.6-4,0.5c-1.4-0.1-2.9-0.6-4.5-1.4
		c-0.6-0.3-1-0.6-1.4-1s-0.8-0.7-1.1-1c-0.2-0.2-0.4-0.4-0.6-0.6c-0.2-0.2-0.4-0.3-0.6-0.4l1.5-2.8l0.3,0.1
		c-0.2,0.6-0.2,1.1-0.1,1.6c0.1,0.5,0.3,0.9,0.5,1.3c0.3,0.4,0.6,0.7,1,1C73.3,268.7,73.6,268.9,74,269.1z"/>
	<path d="M54.9,257.8c-1.2-0.9-2.1-2-2.7-3.1c-0.6-1.2-1-2.3-1.1-3.6c-0.1-1.2,0-2.4,0.4-3.7c0.4-1.2,0.9-2.3,1.7-3.4
		c0.9-1.1,1.9-2,3.1-2.7c1.2-0.6,2.4-1,3.6-1.1c1.3-0.1,2.5,0,3.8,0.4c1.3,0.4,2.5,1,3.6,1.8c1.2,0.9,2.1,1.9,2.7,3.1s1,2.3,1.1,3.5
		c0.1,1.2,0,2.4-0.4,3.6c-0.4,1.2-0.9,2.3-1.7,3.3c-0.8,1-1.7,1.8-2.8,2.5c-1.1,0.7-2.3,1.1-3.5,1.4c-1.3,0.2-2.6,0.2-3.9-0.1
		C57.5,259.4,56.2,258.8,54.9,257.8z M66.4,243c-1.1-0.7-2.1-1.2-3.2-1.4c-1.1-0.2-2.2-0.1-3.2,0.1c-1,0.2-2,0.7-2.8,1.2
		c-0.9,0.6-1.6,1.3-2.2,2c-0.7,0.8-1.2,1.8-1.5,2.9c-0.4,1.1-0.5,2.2-0.5,3.3c0,1.1,0.3,2.2,0.7,3.3s1.2,1.9,2.1,2.7
		c0.9,0.7,2,1.2,3,1.3c1.1,0.2,2.1,0.1,3.2-0.1c1-0.2,2-0.7,2.9-1.3c0.9-0.6,1.7-1.3,2.3-2.1c0.7-0.8,1.1-1.8,1.5-2.9
		c0.3-1.1,0.5-2.2,0.5-3.3s-0.3-2.2-0.7-3.2C68,244.6,67.3,243.7,66.4,243z"/>
	<path d="M53.2,230.7l-0.1-0.1l0.2-0.2l2.1,2.4l-0.2,0.2l-0.1-0.1c-0.1-0.1-0.2-0.2-0.4-0.2c-0.2,0-0.3,0-0.5,0
		c-0.2,0-0.3,0.1-0.5,0.2c-0.2,0.1-0.3,0.2-0.4,0.3l-11.5,10.3c-0.1,0.1-0.2,0.2-0.3,0.3c-0.1,0.1-0.2,0.3-0.3,0.4
		c-0.1,0.2-0.1,0.3-0.1,0.5c0,0.2,0.1,0.3,0.2,0.5l0.1,0.1l-0.2,0.2l-2-2.2l5.3-18.9l-11,9.9c-0.1,0.1-0.2,0.2-0.3,0.4
		c-0.1,0.2-0.2,0.3-0.2,0.5s-0.1,0.3-0.1,0.5c0,0.2,0,0.3,0.2,0.4l0.1,0.1l-0.2,0.2l-2.2-2.4l0.2-0.2l0.1,0.1
		c0.1,0.1,0.2,0.2,0.4,0.2c0.2,0,0.3,0,0.5,0c0.2,0,0.3-0.1,0.5-0.2c0.2-0.1,0.3-0.2,0.4-0.3l12.9-11.6l1.2,1.3l-5.4,18.9l11-9.8
		c0.1-0.1,0.2-0.2,0.3-0.4c0.1-0.2,0.2-0.3,0.3-0.5s0.1-0.3,0.1-0.5C53.3,231,53.3,230.8,53.2,230.7z"/>
	<path d="M37.6,210.8l-0.1-0.1l0.2-0.2L40,214l-0.2,0.2l-0.1-0.1c-0.1-0.1-0.2-0.2-0.4-0.2s-0.3,0-0.5,0c-0.2,0-0.4,0.1-0.5,0.1
		c-0.2,0.1-0.3,0.1-0.5,0.2L24.3,223l1.8,2.8c0.2,0.3,0.4,0.4,0.6,0.6c0.2,0.1,0.5,0.2,0.7,0.2c0.3,0,0.5,0,0.7-0.1
		c0.2-0.1,0.5-0.2,0.7-0.3l0.2,0.2l-2.6,1.7l-7.2-10.9l2.6-1.7l0.2,0.2c-0.2,0.1-0.4,0.3-0.5,0.5c-0.2,0.2-0.3,0.4-0.4,0.7
		c-0.1,0.2-0.1,0.5-0.1,0.8c0,0.3,0.1,0.5,0.3,0.8l1.9,2.9l13.5-8.9c0.1-0.1,0.3-0.2,0.4-0.3c0.1-0.1,0.2-0.3,0.3-0.4
		c0.1-0.2,0.1-0.3,0.2-0.5C37.7,211.1,37.7,211,37.6,210.8z"/>
	<path d="M29.2,195.4l-0.1-0.1c-0.2-0.4-0.5-0.5-0.9-0.3c-0.1,0.1-0.3,0.2-0.4,0.3l-5.2,5.5l2.2,4.6l7.3-0.8c0.2,0,0.3-0.1,0.4-0.1
		c0.2-0.1,0.4-0.3,0.4-0.4c0.1-0.2,0.1-0.3,0-0.5l-0.1-0.1l0.3-0.1l1.4,2.9l-0.3,0.1l-0.1-0.1c-0.1-0.2-0.4-0.4-0.7-0.5
		c-0.4-0.1-0.8-0.1-1.2-0.1l-18.8,1.8l12.9-13.6c0.3-0.3,0.5-0.6,0.8-1c0.2-0.4,0.2-0.7,0.1-1.1l-0.1-0.1l0.3-0.1l1.9,3.9
		L29.2,195.4z M23.9,205.4l-2-4l-4.5,4.7L23.9,205.4z"/>
	<path d="M5.4,182.9c0.4,1.4,1,2.5,1.8,3.3c0.8,0.9,1.7,1.5,2.7,1.9c1,0.4,2,0.7,3.1,0.7c1.1,0,2.1-0.1,3.1-0.4
		c1.1-0.3,2.1-0.9,3-1.6c0.9-0.7,1.7-1.6,2.2-2.6c0.6-1,1-2.1,1.2-3.2c0.2-1.1,0.1-2.3-0.2-3.5c-0.1-0.3-0.3-0.7-0.5-1.1
		c-0.2-0.4-0.5-0.8-0.8-1.2c-0.3-0.4-0.8-0.7-1.3-1c-0.5-0.3-1.1-0.4-1.8-0.4l-0.1-0.3l3.1-0.9c0.1,0.3,0.2,0.6,0.4,0.8
		c0.2,0.3,0.4,0.6,0.6,0.9c0.3,0.4,0.6,0.9,0.8,1.5c0.3,0.5,0.5,1.1,0.7,1.8c0.5,1.6,0.6,3.1,0.4,4.5c-0.2,1.4-0.6,2.6-1.2,3.7
		c-0.6,1.1-1.5,2-2.5,2.7c-1,0.7-2.1,1.3-3.2,1.6c-1.1,0.3-2.3,0.5-3.6,0.4c-1.2-0.1-2.4-0.4-3.6-0.9c-1.1-0.6-2.2-1.4-3.1-2.5
		c-0.9-1.1-1.7-2.5-2.2-4.2c-0.2-0.6-0.3-1.2-0.3-1.7c0-0.5-0.1-1-0.1-1.4c0-0.3,0-0.6,0-0.8c0-0.2-0.1-0.5-0.1-0.7l3.1-0.9l0.1,0.3
		c-0.5,0.3-1,0.6-1.2,1c-0.3,0.4-0.5,0.8-0.6,1.3c-0.1,0.5-0.1,0.9,0,1.4C5.2,182,5.3,182.4,5.4,182.9z"/>
	<path d="M19.3,161.4l0-0.1l0.3,0l0.6,4.1l-0.3,0l0-0.1c0-0.2-0.1-0.3-0.2-0.4c-0.1-0.1-0.3-0.2-0.4-0.2c-0.2-0.1-0.3-0.1-0.5-0.1
		s-0.4,0-0.5,0l-16,2.5l0.5,3.3c0,0.3,0.2,0.6,0.3,0.8c0.2,0.2,0.4,0.4,0.6,0.5c0.2,0.1,0.5,0.2,0.7,0.2c0.3,0,0.5,0,0.7,0l0,0.3
		L2,172.5l-2-12.9l3.1-0.5l0,0.3c-0.2,0-0.5,0.1-0.7,0.2s-0.4,0.3-0.6,0.4c-0.2,0.2-0.3,0.4-0.4,0.7c-0.1,0.2-0.1,0.5-0.1,0.8
		l0.5,3.4l16-2.5c0.2,0,0.3-0.1,0.5-0.1c0.2-0.1,0.3-0.2,0.5-0.3s0.3-0.2,0.4-0.3C19.3,161.6,19.4,161.5,19.3,161.4z"/>
	<path d="M2.3,118.1c-0.2,1.4-0.2,2.7,0.2,3.8c0.3,1.1,0.9,2.1,1.5,2.9c0.7,0.8,1.5,1.5,2.5,2c1,0.5,1.9,0.8,2.9,1
		c1.1,0.2,2.3,0.1,3.4-0.1s2.2-0.7,3.2-1.3s1.8-1.4,2.4-2.4c0.7-0.9,1.1-2,1.3-3.2c0.1-0.3,0.1-0.8,0.1-1.2c0-0.5-0.1-1-0.2-1.5
		c-0.1-0.5-0.4-1-0.7-1.4c-0.3-0.5-0.8-0.8-1.4-1.2l0-0.3l3.2,0.5c0,0.3-0.1,0.6,0,0.9c0,0.3,0.1,0.7,0.1,1.1
		c0.1,0.5,0.1,1.1,0.1,1.7c0,0.6,0,1.3-0.1,1.9c-0.3,1.7-0.8,3.1-1.6,4.2s-1.7,2.1-2.7,2.8c-1.1,0.7-2.2,1.1-3.4,1.4
		c-1.2,0.2-2.4,0.2-3.6,0c-1.2-0.2-2.3-0.6-3.4-1.2c-1.1-0.6-2-1.4-2.8-2.4c-0.8-1-1.4-2.2-1.7-3.6c-0.4-1.4-0.4-3-0.1-4.7
		c0.1-0.6,0.3-1.2,0.5-1.7c0.2-0.5,0.4-0.9,0.6-1.3c0.1-0.3,0.3-0.5,0.3-0.8c0.1-0.2,0.1-0.5,0.2-0.7l3.2,0.5l0,0.3
		c-0.6,0-1.1,0.1-1.6,0.4c-0.4,0.2-0.8,0.5-1.1,0.9c-0.3,0.4-0.5,0.8-0.7,1.2C2.5,117.2,2.4,117.7,2.3,118.1z"/>
	<path d="M7,96.3c0.5-1.4,1.2-2.6,2.1-3.6c0.9-1,1.9-1.7,3-2.2s2.3-0.8,3.6-0.8c1.3,0,2.5,0.2,3.7,0.6c1.4,0.5,2.5,1.2,3.5,2.1
		c1,0.9,1.7,1.9,2.2,3.1c0.5,1.2,0.8,2.4,0.9,3.7c0.1,1.3-0.1,2.6-0.6,4c-0.5,1.4-1.2,2.6-2.1,3.5s-1.9,1.7-3,2.1
		c-1.1,0.5-2.3,0.7-3.5,0.8c-1.2,0-2.5-0.2-3.6-0.6c-1.2-0.4-2.2-1-3.2-1.8c-1-0.8-1.8-1.8-2.4-2.9c-0.6-1.1-1-2.4-1.1-3.7
		C6.3,99.2,6.5,97.8,7,96.3z M24.7,102.5c0.4-1.2,0.5-2.4,0.3-3.5c-0.2-1.1-0.5-2.1-1.1-3c-0.6-0.9-1.3-1.7-2.1-2.3
		c-0.8-0.6-1.7-1.1-2.6-1.4c-1-0.4-2.1-0.5-3.2-0.5c-1.1,0-2.3,0.2-3.3,0.6c-1.1,0.4-2,1-2.9,1.7c-0.8,0.8-1.5,1.7-1.9,2.9
		c-0.4,1.1-0.5,2.2-0.3,3.3c0.2,1.1,0.6,2.1,1.1,3c0.6,0.9,1.3,1.7,2.1,2.4s1.7,1.2,2.7,1.5c1,0.4,2.1,0.5,3.2,0.5
		c1.1,0,2.2-0.2,3.3-0.6s2-1,2.8-1.7C23.7,104.5,24.3,103.6,24.7,102.5z"/>
	<path d="M32.2,86.1l0.1-0.1l0.3,0.1l-1.6,2.8l-0.3-0.1l0.1-0.1c0.1-0.1,0.1-0.3,0-0.4c0-0.2-0.1-0.3-0.2-0.5
		c-0.1-0.1-0.2-0.3-0.3-0.4c-0.1-0.1-0.3-0.2-0.4-0.3l-13.4-7.7c-0.1-0.1-0.3-0.1-0.4-0.2s-0.3-0.1-0.5-0.1c-0.2,0-0.3,0-0.5,0.1
		c-0.2,0.1-0.3,0.2-0.4,0.3l-0.1,0.1l-0.3-0.1l1.5-2.5L35.3,76l-12.8-7.3c-0.1-0.1-0.3-0.1-0.4-0.2c-0.2,0-0.4-0.1-0.5-0.1
		c-0.2,0-0.3,0-0.5,0.1c-0.1,0-0.3,0.1-0.3,0.3l-0.1,0.1l-0.3-0.1l1.6-2.8l0.3,0.1l-0.1,0.1c-0.1,0.1-0.1,0.3-0.1,0.4
		c0,0.2,0.1,0.3,0.2,0.5c0.1,0.2,0.2,0.3,0.3,0.4c0.1,0.1,0.3,0.2,0.4,0.3L38,76.4L37.1,78l-19.7,0.9l12.8,7.3
		c0.1,0.1,0.3,0.1,0.5,0.2c0.2,0.1,0.4,0.1,0.5,0.1c0.2,0,0.3,0,0.5-0.1C32,86.3,32.1,86.2,32.2,86.1z"/>
	<path d="M46.1,65l0.1-0.1l0.2,0.2l-2.6,3.2l-0.2-0.2l0.1-0.1c0.1-0.1,0.1-0.3,0.1-0.4c0-0.2-0.1-0.3-0.1-0.5
		c-0.1-0.2-0.2-0.3-0.3-0.5c-0.1-0.1-0.2-0.3-0.4-0.4l-12.7-10l-2.1,2.6c-0.2,0.2-0.3,0.5-0.3,0.8c0,0.3,0,0.5,0,0.8
		c0.1,0.2,0.2,0.5,0.3,0.7c0.1,0.2,0.3,0.4,0.5,0.5l-0.2,0.2l-2.5-2l8.1-10.2l2.5,2l-0.2,0.2c-0.2-0.1-0.4-0.3-0.6-0.3
		c-0.2-0.1-0.5-0.1-0.7-0.1c-0.3,0-0.5,0-0.8,0.1c-0.2,0.1-0.5,0.3-0.7,0.5l-2.1,2.7l12.7,10c0.1,0.1,0.3,0.2,0.4,0.3
		c0.2,0.1,0.3,0.1,0.5,0.2c0.2,0,0.3,0,0.5,0C45.9,65.2,46,65.1,46.1,65z"/>
	<path d="M58.1,52.2l0.1-0.1c0.3-0.3,0.3-0.6,0-0.9c-0.1-0.1-0.2-0.2-0.4-0.3L51,47.7l-3.6,3.6l3.1,6.7c0.1,0.2,0.1,0.3,0.2,0.4
		c0.2,0.2,0.4,0.3,0.6,0.3c0.2,0,0.4,0,0.5-0.2l0.1-0.1l0.2,0.2l-2.3,2.3l-0.2-0.2l0.1-0.1c0.2-0.2,0.2-0.5,0.2-0.8
		c0-0.4-0.1-0.8-0.3-1.2l-7.7-17.3l16.9,7.9c0.4,0.2,0.8,0.3,1.2,0.4s0.8,0,1.1-0.3l0.1-0.1l0.2,0.2l-3.1,3L58.1,52.2z M46.9,50.4
		l3.2-3.1l-5.8-2.7L46.9,50.4z"/>
	<path d="M62.5,25.7c-1.2,0.8-2,1.8-2.6,2.8c-0.6,1-0.9,2.1-1,3.1c-0.1,1.1,0,2.1,0.3,3.2c0.3,1,0.8,2,1.3,2.8
		c0.7,0.9,1.5,1.7,2.5,2.3c1,0.6,2.1,1.1,3.2,1.3c1.1,0.2,2.3,0.3,3.4,0.1c1.1-0.2,2.2-0.6,3.2-1.3c0.3-0.2,0.6-0.5,0.9-0.8
		c0.3-0.3,0.6-0.7,0.9-1.2c0.2-0.4,0.4-1,0.5-1.5c0.1-0.6,0-1.2-0.2-1.8l0.2-0.2l1.9,2.6c-0.2,0.2-0.5,0.4-0.7,0.6
		c-0.2,0.2-0.5,0.5-0.7,0.8c-0.3,0.4-0.7,0.8-1.1,1.3c-0.4,0.4-0.9,0.9-1.5,1.3c-1.4,1-2.7,1.6-4.1,1.9s-2.7,0.3-3.9,0
		c-1.2-0.3-2.4-0.8-3.4-1.5c-1-0.7-1.9-1.6-2.6-2.5c-0.7-1-1.2-2.1-1.5-3.3c-0.3-1.2-0.4-2.4-0.3-3.7s0.6-2.5,1.4-3.7
		c0.7-1.2,1.8-2.4,3.3-3.4c0.5-0.4,1-0.7,1.5-0.9c0.5-0.2,0.9-0.4,1.3-0.5c0.3-0.1,0.6-0.2,0.8-0.3c0.2-0.1,0.4-0.2,0.6-0.4l1.9,2.6
		l-0.2,0.2c-0.4-0.4-0.9-0.7-1.4-0.9c-0.5-0.1-1-0.2-1.4-0.1c-0.5,0.1-0.9,0.2-1.3,0.4C63.2,25.2,62.8,25.4,62.5,25.7z"/>
	<path d="M87.3,32l0.1-0.1l0.1,0.3l-3.7,1.9l-0.1-0.3l0.1-0.1c0.1-0.1,0.2-0.2,0.3-0.3c0-0.2,0.1-0.3,0.1-0.5c0-0.2,0-0.4-0.1-0.5
		c-0.1-0.2-0.1-0.3-0.2-0.5l-7.4-14.4l-3,1.5c-0.3,0.1-0.5,0.3-0.6,0.6s-0.2,0.5-0.3,0.7c0,0.3,0,0.5,0,0.8c0,0.3,0.1,0.5,0.2,0.7
		L72.6,22l-1.5-2.8l11.6-6l1.5,2.8l-0.3,0.1c-0.1-0.2-0.2-0.4-0.4-0.6c-0.2-0.2-0.4-0.3-0.6-0.4s-0.5-0.2-0.7-0.2
		c-0.3,0-0.5,0.1-0.8,0.2l-3,1.6l7.4,14.4c0.1,0.1,0.2,0.3,0.3,0.4c0.1,0.1,0.3,0.3,0.4,0.4c0.1,0.1,0.3,0.2,0.4,0.2
		C87,32.1,87.1,32.1,87.3,32z"/>
</g>
</svg>
